<svg id="visual" viewBox="0 0 960 100" width="960" height="100" xmlns="http://www.w3.org/2000/svg" xmlns:xlink="http://www.w3.org/1999/xlink" version="1.1"><rect x="0" y="0" width="960" height="100" fill="#1f2937"></rect><path d="M0 20L22.8 22.3C45.7 24.7 91.3 29.3 137 29.7C182.7 30 228.3 26 274 24.5C319.7 23 365.3 24 411.2 29.3C457 34.7 503 44.3 548.8 47C594.7 49.7 640.3 45.3 686 45.7C731.7 46 777.3 51 823 49C868.7 47 914.3 38 937.2 33.5L960 29L960 101L937.2 101C914.3 101 868.7 101 823 101C777.3 101 731.7 101 686 101C640.3 101 594.7 101 548.8 101C503 101 457 101 411.2 101C365.3 101 319.7 101 274 101C228.3 101 182.7 101 137 101C91.3 101 45.7 101 22.8 101L0 101Z" fill="#3582f6"></path><path d="M0 44L22.8 48.8C45.7 53.7 91.3 63.3 137 67.5C182.7 71.7 228.3 70.3 274 64C319.7 57.7 365.3 46.3 411.2 40.3C457 34.3 503 33.7 548.8 35C594.7 36.3 640.3 39.7 686 45C731.7 50.3 777.3 57.7 823 63.2C868.7 68.7 914.3 72.3 937.2 74.2L960 76L960 101L937.2 101C914.3 101 868.7 101 823 101C777.3 101 731.7 101 686 101C640.3 101 594.7 101 548.8 101C503 101 457 101 411.2 101C365.3 101 319.7 101 274 101C228.3 101 182.7 101 137 101C91.3 101 45.7 101 22.8 101L0 101Z" fill="#6891f3"></path><path d="M0 77L22.8 74.3C45.7 71.7 91.3 66.3 137 63.3C182.7 60.3 228.3 59.7 274 59.7C319.7 59.7 365.3 60.3 411.2 60.2C457 60 503 59 548.8 57.3C594.7 55.7 640.3 53.3 686 51.8C731.7 50.3 777.3 49.7 823 52.3C868.7 55 914.3 61 937.2 64L960 67L960 101L937.2 101C914.3 101 868.7 101 823 101C777.3 101 731.7 101 686 101C640.3 101 594.7 101 548.8 101C503 101 457 101 411.2 101C365.3 101 319.7 101 274 101C228.3 101 182.7 101 137 101C91.3 101 45.7 101 22.8 101L0 101Z" fill="#89a1ef"></path><path d="M0 80L22.8 80C45.7 80 91.3 80 137 76.8C182.7 73.7 228.3 67.3 274 65C319.7 62.7 365.3 64.3 411.2 66.5C457 68.7 503 71.3 548.8 74C594.7 76.7 640.3 79.3 686 78.2C731.7 77 777.3 72 823 72.8C868.7 73.7 914.3 80.3 937.2 83.7L960 87L960 101L937.2 101C914.3 101 868.7 101 823 101C777.3 101 731.7 101 686 101C640.3 101 594.7 101 548.8 101C503 101 457 101 411.2 101C365.3 101 319.7 101 274 101C228.3 101 182.7 101 137 101C91.3 101 45.7 101 22.8 101L0 101Z" fill="#a4b2ec"></path><path d="M0 73L22.8 75C45.7 77 91.3 81 137 82.3C182.7 83.7 228.3 82.3 274 82.7C319.7 83 365.3 85 411.2 84.5C457 84 503 81 548.8 82C594.7 83 640.3 88 686 89.5C731.7 91 777.3 89 823 86.5C868.7 84 914.3 81 937.2 79.5L960 78L960 101L937.2 101C914.3 101 868.7 101 823 101C777.3 101 731.7 101 686 101C640.3 101 594.7 101 548.8 101C503 101 457 101 411.2 101C365.3 101 319.7 101 274 101C228.3 101 182.7 101 137 101C91.3 101 45.7 101 22.8 101L0 101Z" fill="#bcc3e8"></path></svg>