<svg id="visual" viewBox="0 0 960 150" width="960" height="150" xmlns="http://www.w3.org/2000/svg" xmlns:xlink="http://www.w3.org/1999/xlink" version="1.1"><rect x="0" y="0" width="960" height="150" fill="#e5e7eb"></rect><path d="M0 58L26.7 58.3C53.3 58.7 106.7 59.3 160 59.8C213.3 60.3 266.7 60.7 320 58.2C373.3 55.7 426.7 50.3 480 47.7C533.3 45 586.7 45 640 48.3C693.3 51.7 746.7 58.3 800 61.2C853.3 64 906.7 63 933.3 62.5L960 62L960 0L933.3 0C906.7 0 853.3 0 800 0C746.7 0 693.3 0 640 0C586.7 0 533.3 0 480 0C426.7 0 373.3 0 320 0C266.7 0 213.3 0 160 0C106.7 0 53.3 0 26.7 0L0 0Z" fill="#3882f6"></path><path d="M0 38L26.7 40.2C53.3 42.3 106.7 46.7 160 47.2C213.3 47.7 266.7 44.3 320 41.7C373.3 39 426.7 37 480 36.8C533.3 36.7 586.7 38.3 640 38.5C693.3 38.7 746.7 37.3 800 36.7C853.3 36 906.7 36 933.3 36L960 36L960 0L933.3 0C906.7 0 853.3 0 800 0C746.7 0 693.3 0 640 0C586.7 0 533.3 0 480 0C426.7 0 373.3 0 320 0C266.7 0 213.3 0 160 0C106.7 0 53.3 0 26.7 0L0 0Z" fill="#276cc3"></path><path d="M0 32L26.7 33.3C53.3 34.7 106.7 37.3 160 38C213.3 38.7 266.7 37.3 320 36.2C373.3 35 426.7 34 480 32.2C533.3 30.3 586.7 27.7 640 27C693.3 26.3 746.7 27.7 800 30.2C853.3 32.7 906.7 36.3 933.3 38.2L960 40L960 0L933.3 0C906.7 0 853.3 0 800 0C746.7 0 693.3 0 640 0C586.7 0 533.3 0 480 0C426.7 0 373.3 0 320 0C266.7 0 213.3 0 160 0C106.7 0 53.3 0 26.7 0L0 0Z" fill="#225592"></path><path d="M0 24L26.7 22.7C53.3 21.3 106.7 18.7 160 17.8C213.3 17 266.7 18 320 18.5C373.3 19 426.7 19 480 20.5C533.3 22 586.7 25 640 25C693.3 25 746.7 22 800 20.7C853.3 19.3 906.7 19.7 933.3 19.8L960 20L960 0L933.3 0C906.7 0 853.3 0 800 0C746.7 0 693.3 0 640 0C586.7 0 533.3 0 480 0C426.7 0 373.3 0 320 0C266.7 0 213.3 0 160 0C106.7 0 53.3 0 26.7 0L0 0Z" fill="#223f63"></path><path d="M0 8L26.7 8C53.3 8 106.7 8 160 9.5C213.3 11 266.7 14 320 14.7C373.3 15.3 426.7 13.7 480 12.5C533.3 11.3 586.7 10.7 640 10.8C693.3 11 746.7 12 800 13.2C853.3 14.3 906.7 15.7 933.3 16.3L960 17L960 0L933.3 0C906.7 0 853.3 0 800 0C746.7 0 693.3 0 640 0C586.7 0 533.3 0 480 0C426.7 0 373.3 0 320 0C266.7 0 213.3 0 160 0C106.7 0 53.3 0 26.7 0L0 0Z" fill="#1f2937"></path></svg>