<svg id="visual" viewBox="0 0 960 150" width="960" height="150" xmlns="http://www.w3.org/2000/svg" xmlns:xlink="http://www.w3.org/1999/xlink" version="1.1"><rect x="0" y="0" width="960" height="150" fill="#1f2937"></rect><path d="M0 41L22.8 45.7C45.7 50.3 91.3 59.7 137 63.8C182.7 68 228.3 67 274 62.5C319.7 58 365.3 50 411.2 50.7C457 51.3 503 60.7 548.8 60.7C594.7 60.7 640.3 51.3 686 50.8C731.7 50.3 777.3 58.7 823 61C868.7 63.3 914.3 59.7 937.2 57.8L960 56L960 0L937.2 0C914.3 0 868.7 0 823 0C777.3 0 731.7 0 686 0C640.3 0 594.7 0 548.8 0C503 0 457 0 411.2 0C365.3 0 319.7 0 274 0C228.3 0 182.7 0 137 0C91.3 0 45.7 0 22.8 0L0 0Z" fill="#3582f6"></path><path d="M0 38L22.8 41.5C45.7 45 91.3 52 137 52.8C182.7 53.7 228.3 48.3 274 45.7C319.7 43 365.3 43 411.2 43.7C457 44.3 503 45.7 548.8 44.2C594.7 42.7 640.3 38.3 686 37.5C731.7 36.7 777.3 39.3 823 38.7C868.7 38 914.3 34 937.2 32L960 30L960 0L937.2 0C914.3 0 868.7 0 823 0C777.3 0 731.7 0 686 0C640.3 0 594.7 0 548.8 0C503 0 457 0 411.2 0C365.3 0 319.7 0 274 0C228.3 0 182.7 0 137 0C91.3 0 45.7 0 22.8 0L0 0Z" fill="#7e9ff9"></path><path d="M0 34L22.8 35C45.7 36 91.3 38 137 39.3C182.7 40.7 228.3 41.3 274 40.7C319.7 40 365.3 38 411.2 35.2C457 32.3 503 28.7 548.8 30.5C594.7 32.3 640.3 39.7 686 40.5C731.7 41.3 777.3 35.7 823 34.2C868.7 32.7 914.3 35.3 937.2 36.7L960 38L960 0L937.2 0C914.3 0 868.7 0 823 0C777.3 0 731.7 0 686 0C640.3 0 594.7 0 548.8 0C503 0 457 0 411.2 0C365.3 0 319.7 0 274 0C228.3 0 182.7 0 137 0C91.3 0 45.7 0 22.8 0L0 0Z" fill="#aebefc"></path><path d="M0 34L22.8 33C45.7 32 91.3 30 137 26.7C182.7 23.3 228.3 18.7 274 18.8C319.7 19 365.3 24 411.2 27.3C457 30.7 503 32.3 548.8 31.8C594.7 31.3 640.3 28.7 686 28.3C731.7 28 777.3 30 823 28.3C868.7 26.7 914.3 21.3 937.2 18.7L960 16L960 0L937.2 0C914.3 0 868.7 0 823 0C777.3 0 731.7 0 686 0C640.3 0 594.7 0 548.8 0C503 0 457 0 411.2 0C365.3 0 319.7 0 274 0C228.3 0 182.7 0 137 0C91.3 0 45.7 0 22.8 0L0 0Z" fill="#d8defe"></path><path d="M0 4L22.8 5.3C45.7 6.7 91.3 9.3 137 9.3C182.7 9.3 228.3 6.7 274 8.3C319.7 10 365.3 16 411.2 18.3C457 20.7 503 19.3 548.8 17C594.7 14.7 640.3 11.3 686 11.5C731.7 11.7 777.3 15.3 823 17.5C868.7 19.7 914.3 20.3 937.2 20.7L960 21L960 0L937.2 0C914.3 0 868.7 0 823 0C777.3 0 731.7 0 686 0C640.3 0 594.7 0 548.8 0C503 0 457 0 411.2 0C365.3 0 319.7 0 274 0C228.3 0 182.7 0 137 0C91.3 0 45.7 0 22.8 0L0 0Z" fill="#ffffff"></path></svg>