<svg id="visual" viewBox="0 0 960 150" width="960" height="150" xmlns="http://www.w3.org/2000/svg" xmlns:xlink="http://www.w3.org/1999/xlink" version="1.1"><path d="M0 48L14.5 44.2C29 40.3 58 32.7 87.2 33.7C116.3 34.7 145.7 44.3 174.8 49.8C204 55.3 233 56.7 262 51.2C291 45.7 320 33.3 349 32.7C378 32 407 43 436.2 49C465.3 55 494.7 56 523.8 55.5C553 55 582 53 611 52.5C640 52 669 53 698 54C727 55 756 56 785.2 56.5C814.3 57 843.7 57 872.8 53C902 49 931 41 945.5 37L960 33L960 0L945.5 0C931 0 902 0 872.8 0C843.7 0 814.3 0 785.2 0C756 0 727 0 698 0C669 0 640 0 611 0C582 0 553 0 523.8 0C494.7 0 465.3 0 436.2 0C407 0 378 0 349 0C320 0 291 0 262 0C233 0 204 0 174.8 0C145.7 0 116.3 0 87.2 0C58 0 29 0 14.5 0L0 0Z" fill="#ffffff"></path><path d="M0 78L14.5 75C29 72 58 66 87.2 67.7C116.3 69.3 145.7 78.7 174.8 82.8C204 87 233 86 262 81C291 76 320 67 349 67C378 67 407 76 436.2 82C465.3 88 494.7 91 523.8 89.3C553 87.7 582 81.3 611 78.2C640 75 669 75 698 78.2C727 81.3 756 87.7 785.2 92.2C814.3 96.7 843.7 99.3 872.8 94C902 88.7 931 75.3 945.5 68.7L960 62L960 31L945.5 35C931 39 902 47 872.8 51C843.7 55 814.3 55 785.2 54.5C756 54 727 53 698 52C669 51 640 50 611 50.5C582 51 553 53 523.8 53.5C494.7 54 465.3 53 436.2 47C407 41 378 30 349 30.7C320 31.3 291 43.7 262 49.2C233 54.7 204 53.3 174.8 47.8C145.7 42.3 116.3 32.7 87.2 31.7C58 30.7 29 38.3 14.5 42.2L0 46Z" fill="#f8f9fa"></path><path d="M0 93L14.5 90.2C29 87.3 58 81.7 87.2 84.7C116.3 87.7 145.7 99.3 174.8 102.7C204 106 233 101 262 96.2C291 91.3 320 86.7 349 89.2C378 91.7 407 101.3 436.2 107.2C465.3 113 494.7 115 523.8 113.2C553 111.3 582 105.7 611 101.8C640 98 669 96 698 97C727 98 756 102 785.2 105.5C814.3 109 843.7 112 872.8 107.3C902 102.7 931 90.3 945.5 84.2L960 78L960 60L945.5 66.7C931 73.3 902 86.7 872.8 92C843.7 97.3 814.3 94.7 785.2 90.2C756 85.7 727 79.3 698 76.2C669 73 640 73 611 76.2C582 79.3 553 85.7 523.8 87.3C494.7 89 465.3 86 436.2 80C407 74 378 65 349 65C320 65 291 74 262 79C233 84 204 85 174.8 80.8C145.7 76.7 116.3 67.3 87.2 65.7C58 64 29 70 14.5 73L0 76Z" fill="#f2f3f5"></path><path d="M0 121L14.5 118C29 115 58 109 87.2 111.3C116.3 113.7 145.7 124.3 174.8 127.2C204 130 233 125 262 119.7C291 114.3 320 108.7 349 109.7C378 110.7 407 118.3 436.2 122.3C465.3 126.3 494.7 126.7 523.8 125.3C553 124 582 121 611 118.5C640 116 669 114 698 114.3C727 114.7 756 117.3 785.2 119.7C814.3 122 843.7 124 872.8 120.2C902 116.3 931 106.7 945.5 101.8L960 97L960 76L945.5 82.2C931 88.3 902 100.7 872.8 105.3C843.7 110 814.3 107 785.2 103.5C756 100 727 96 698 95C669 94 640 96 611 99.8C582 103.7 553 109.3 523.8 111.2C494.7 113 465.3 111 436.2 105.2C407 99.3 378 89.7 349 87.2C320 84.7 291 89.3 262 94.2C233 99 204 104 174.8 100.7C145.7 97.3 116.3 85.7 87.2 82.7C58 79.7 29 85.3 14.5 88.2L0 91Z" fill="#ebedf0"></path><path d="M0 151L14.5 151C29 151 58 151 87.2 151C116.3 151 145.7 151 174.8 151C204 151 233 151 262 151C291 151 320 151 349 151C378 151 407 151 436.2 151C465.3 151 494.7 151 523.8 151C553 151 582 151 611 151C640 151 669 151 698 151C727 151 756 151 785.2 151C814.3 151 843.7 151 872.8 151C902 151 931 151 945.5 151L960 151L960 95L945.5 99.8C931 104.7 902 114.3 872.8 118.2C843.7 122 814.3 120 785.2 117.7C756 115.3 727 112.7 698 112.3C669 112 640 114 611 116.5C582 119 553 122 523.8 123.3C494.7 124.7 465.3 124.3 436.2 120.3C407 116.3 378 108.7 349 107.7C320 106.7 291 112.3 262 117.7C233 123 204 128 174.8 125.2C145.7 122.3 116.3 111.7 87.2 109.3C58 107 29 113 14.5 116L0 119Z" fill="#e5e7eb"></path></svg>