<svg id="visual" viewBox="0 0 960 100" width="960" height="100" xmlns="http://www.w3.org/2000/svg" xmlns:xlink="http://www.w3.org/1999/xlink" version="1.1"><rect x="0" y="0" width="960" height="100" fill="#1f2937"></rect><path d="M0 81L22.8 80.2C45.7 79.3 91.3 77.7 137 74C182.7 70.3 228.3 64.7 274 61.2C319.7 57.7 365.3 56.3 411.2 56C457 55.7 503 56.3 548.8 58.8C594.7 61.3 640.3 65.7 686 68.5C731.7 71.3 777.3 72.7 823 71.5C868.7 70.3 914.3 66.7 937.2 64.8L960 63L960 101L937.2 101C914.3 101 868.7 101 823 101C777.3 101 731.7 101 686 101C640.3 101 594.7 101 548.8 101C503 101 457 101 411.2 101C365.3 101 319.7 101 274 101C228.3 101 182.7 101 137 101C91.3 101 45.7 101 22.8 101L0 101Z" fill="#3582f6"></path><path d="M0 81L22.8 78.8C45.7 76.7 91.3 72.3 137 68.5C182.7 64.7 228.3 61.3 274 64.3C319.7 67.3 365.3 76.7 411.2 77C457 77.3 503 68.7 548.8 65.5C594.7 62.3 640.3 64.7 686 66.3C731.7 68 777.3 69 823 71C868.7 73 914.3 76 937.2 77.5L960 79L960 101L937.2 101C914.3 101 868.7 101 823 101C777.3 101 731.7 101 686 101C640.3 101 594.7 101 548.8 101C503 101 457 101 411.2 101C365.3 101 319.7 101 274 101C228.3 101 182.7 101 137 101C91.3 101 45.7 101 22.8 101L0 101Z" fill="#6891f3"></path><path d="M0 75L22.8 76.3C45.7 77.7 91.3 80.3 137 80.2C182.7 80 228.3 77 274 77.7C319.7 78.3 365.3 82.7 411.2 81.7C457 80.7 503 74.3 548.8 71.2C594.7 68 640.3 68 686 69C731.7 70 777.3 72 823 74.5C868.7 77 914.3 80 937.2 81.5L960 83L960 101L937.2 101C914.3 101 868.7 101 823 101C777.3 101 731.7 101 686 101C640.3 101 594.7 101 548.8 101C503 101 457 101 411.2 101C365.3 101 319.7 101 274 101C228.3 101 182.7 101 137 101C91.3 101 45.7 101 22.8 101L0 101Z" fill="#89a1ef"></path><path d="M0 90L22.8 89C45.7 88 91.3 86 137 85.3C182.7 84.7 228.3 85.3 274 85.8C319.7 86.3 365.3 86.7 411.2 87.7C457 88.7 503 90.3 548.8 89.5C594.7 88.7 640.3 85.3 686 83C731.7 80.7 777.3 79.3 823 80.7C868.7 82 914.3 86 937.2 88L960 90L960 101L937.2 101C914.3 101 868.7 101 823 101C777.3 101 731.7 101 686 101C640.3 101 594.7 101 548.8 101C503 101 457 101 411.2 101C365.3 101 319.7 101 274 101C228.3 101 182.7 101 137 101C91.3 101 45.7 101 22.8 101L0 101Z" fill="#a4b2ec"></path><path d="M0 96L22.8 95C45.7 94 91.3 92 137 91.5C182.7 91 228.3 92 274 91.5C319.7 91 365.3 89 411.2 89.8C457 90.7 503 94.3 548.8 95.7C594.7 97 640.3 96 686 96C731.7 96 777.3 97 823 97.3C868.7 97.7 914.3 97.3 937.2 97.2L960 97L960 101L937.2 101C914.3 101 868.7 101 823 101C777.3 101 731.7 101 686 101C640.3 101 594.7 101 548.8 101C503 101 457 101 411.2 101C365.3 101 319.7 101 274 101C228.3 101 182.7 101 137 101C91.3 101 45.7 101 22.8 101L0 101Z" fill="#bcc3e8"></path></svg>