<svg id="visual" viewBox="0 0 960 150" width="960" height="150" xmlns="http://www.w3.org/2000/svg" xmlns:xlink="http://www.w3.org/1999/xlink" version="1.1"><rect x="0" y="0" width="960" height="150" fill="#ffffff"></rect><path d="M0 74L22.8 82.3C45.7 90.7 91.3 107.3 137 106.2C182.7 105 228.3 86 274 79.8C319.7 73.7 365.3 80.3 411.2 84.2C457 88 503 89 548.8 93.7C594.7 98.3 640.3 106.7 686 103.2C731.7 99.7 777.3 84.3 823 81.7C868.7 79 914.3 89 937.2 94L960 99L960 0L937.2 0C914.3 0 868.7 0 823 0C777.3 0 731.7 0 686 0C640.3 0 594.7 0 548.8 0C503 0 457 0 411.2 0C365.3 0 319.7 0 274 0C228.3 0 182.7 0 137 0C91.3 0 45.7 0 22.8 0L0 0Z" fill="#3582f6"></path><path d="M0 87L22.8 82C45.7 77 91.3 67 137 70.2C182.7 73.3 228.3 89.7 274 96C319.7 102.3 365.3 98.7 411.2 89.5C457 80.3 503 65.7 548.8 61C594.7 56.3 640.3 61.7 686 70C731.7 78.3 777.3 89.7 823 88.2C868.7 86.7 914.3 72.3 937.2 65.2L960 58L960 0L937.2 0C914.3 0 868.7 0 823 0C777.3 0 731.7 0 686 0C640.3 0 594.7 0 548.8 0C503 0 457 0 411.2 0C365.3 0 319.7 0 274 0C228.3 0 182.7 0 137 0C91.3 0 45.7 0 22.8 0L0 0Z" fill="#256cc3"></path><path d="M0 82L22.8 82.2C45.7 82.3 91.3 82.7 137 77.3C182.7 72 228.3 61 274 60.3C319.7 59.7 365.3 69.3 411.2 75C457 80.7 503 82.3 548.8 78.5C594.7 74.7 640.3 65.3 686 59.2C731.7 53 777.3 50 823 55.2C868.7 60.3 914.3 73.7 937.2 80.3L960 87L960 0L937.2 0C914.3 0 868.7 0 823 0C777.3 0 731.7 0 686 0C640.3 0 594.7 0 548.8 0C503 0 457 0 411.2 0C365.3 0 319.7 0 274 0C228.3 0 182.7 0 137 0C91.3 0 45.7 0 22.8 0L0 0Z" fill="#215592"></path><path d="M0 29L22.8 31.3C45.7 33.7 91.3 38.3 137 42.8C182.7 47.3 228.3 51.7 274 48C319.7 44.3 365.3 32.7 411.2 30.5C457 28.3 503 35.7 548.8 40.2C594.7 44.7 640.3 46.3 686 47.7C731.7 49 777.3 50 823 48.3C868.7 46.7 914.3 42.3 937.2 40.2L960 38L960 0L937.2 0C914.3 0 868.7 0 823 0C777.3 0 731.7 0 686 0C640.3 0 594.7 0 548.8 0C503 0 457 0 411.2 0C365.3 0 319.7 0 274 0C228.3 0 182.7 0 137 0C91.3 0 45.7 0 22.8 0L0 0Z" fill="#213f63"></path><path d="M0 27L22.8 29.3C45.7 31.7 91.3 36.3 137 33.5C182.7 30.7 228.3 20.3 274 17.5C319.7 14.7 365.3 19.3 411.2 23.5C457 27.7 503 31.3 548.8 29C594.7 26.7 640.3 18.3 686 15.2C731.7 12 777.3 14 823 16C868.7 18 914.3 20 937.2 21L960 22L960 0L937.2 0C914.3 0 868.7 0 823 0C777.3 0 731.7 0 686 0C640.3 0 594.7 0 548.8 0C503 0 457 0 411.2 0C365.3 0 319.7 0 274 0C228.3 0 182.7 0 137 0C91.3 0 45.7 0 22.8 0L0 0Z" fill="#1f2937"></path></svg>