<svg id="visual" viewBox="0 0 960 150" width="960" height="150" xmlns="http://www.w3.org/2000/svg" xmlns:xlink="http://www.w3.org/1999/xlink" version="1.1"><rect x="0" y="0" width="960" height="150" fill="#f9faf8"></rect><path d="M0 121L22.8 121.3C45.7 121.7 91.3 122.3 137 122.2C182.7 122 228.3 121 274 118.3C319.7 115.7 365.3 111.3 411.2 112.3C457 113.3 503 119.7 548.8 118.8C594.7 118 640.3 110 686 109C731.7 108 777.3 114 823 113.7C868.7 113.3 914.3 106.7 937.2 103.3L960 100L960 151L937.2 151C914.3 151 868.7 151 823 151C777.3 151 731.7 151 686 151C640.3 151 594.7 151 548.8 151C503 151 457 151 411.2 151C365.3 151 319.7 151 274 151C228.3 151 182.7 151 137 151C91.3 151 45.7 151 22.8 151L0 151Z" fill="#ffffff" stroke-linecap="round" stroke-linejoin="miter"></path></svg>