<svg id="visual" viewBox="0 0 960 150" width="960" height="150" xmlns="http://www.w3.org/2000/svg" xmlns:xlink="http://www.w3.org/1999/xlink" version="1.1"><rect x="0" y="0" width="960" height="150" fill="#f9faf8"></rect><path d="M0 27L22.8 26.7C45.7 26.3 91.3 25.7 137 25.8C182.7 26 228.3 27 274 29.7C319.7 32.3 365.3 36.7 411.2 35.7C457 34.7 503 28.3 548.8 29.2C594.7 30 640.3 38 686 39C731.7 40 777.3 34 823 34.3C868.7 34.7 914.3 41.3 937.2 44.7L960 48L960 0L937.2 0C914.3 0 868.7 0 823 0C777.3 0 731.7 0 686 0C640.3 0 594.7 0 548.8 0C503 0 457 0 411.2 0C365.3 0 319.7 0 274 0C228.3 0 182.7 0 137 0C91.3 0 45.7 0 22.8 0L0 0Z" fill="#ffffff" stroke-linecap="round" stroke-linejoin="miter"></path></svg>